<?xml version="1.0" encoding="UTF-8"?>
<svg width="48" height="48" viewBox="0 0 48 48" fill="none" xmlns="http://www.w3.org/2000/svg">
  <rect width="48" height="48" fill="#FF9900"/>
  <g fill="white">
    <circle cx="24" cy="24" r="3" fill="white"/>
    <circle cx="12" cy="12" r="2" fill="white"/>
    <circle cx="36" cy="12" r="2" fill="white"/>
    <circle cx="12" cy="36" r="2" fill="white"/>
    <circle cx="36" cy="36" r="2" fill="white"/>
    <circle cx="24" cy="8" r="1.5" fill="white"/>
    <circle cx="8" cy="24" r="1.5" fill="white"/>
    <circle cx="40" cy="24" r="1.5" fill="white"/>
    <circle cx="24" cy="40" r="1.5" fill="white"/>
    <line x1="24" y1="24" x2="12" y2="12" stroke="white" stroke-width="1" opacity="0.6"/>
    <line x1="24" y1="24" x2="36" y2="12" stroke="white" stroke-width="1" opacity="0.6"/>
    <line x1="24" y1="24" x2="12" y2="36" stroke="white" stroke-width="1" opacity="0.6"/>
    <line x1="24" y1="24" x2="36" y2="36" stroke="white" stroke-width="1" opacity="0.6"/>
    <line x1="24" y1="24" x2="24" y2="8" stroke="white" stroke-width="1" opacity="0.6"/>
    <line x1="24" y1="24" x2="8" y2="24" stroke="white" stroke-width="1" opacity="0.6"/>
    <line x1="24" y1="24" x2="40" y2="24" stroke="white" stroke-width="1" opacity="0.6"/>
    <line x1="24" y1="24" x2="24" y2="40" stroke="white" stroke-width="1" opacity="0.6"/>
  </g>
</svg>