<svg width="64" height="64" viewBox="0 0 64 64" xmlns="http://www.w3.org/2000/svg">
  <defs>
    <linearGradient id="batch-gradient" x1="0%" y1="0%" x2="100%" y2="100%">
      <stop offset="0%" style="stop-color:#FF9900;stop-opacity:1" />
      <stop offset="100%" style="stop-color:#E88800;stop-opacity:1" />
    </linearGradient>
  </defs>
  
  <!-- Background circle -->
  <circle cx="32" cy="32" r="30" fill="url(#batch-gradient)" stroke="#fff" stroke-width="2"/>
  
  <!-- Batch job queue visualization -->
  <g fill="#fff" stroke="#fff" stroke-width="1">
    <!-- Job boxes -->
    <rect x="12" y="20" width="12" height="8" rx="1" fill="#fff"/>
    <rect x="26" y="20" width="12" height="8" rx="1" fill="#fff"/>
    <rect x="40" y="20" width="12" height="8" rx="1" fill="#fff"/>
    
    <rect x="12" y="32" width="12" height="8" rx="1" fill="#fff"/>
    <rect x="26" y="32" width="12" height="8" rx="1" fill="#fff"/>
    <rect x="40" y="32" width="12" height="8" rx="1" fill="#fff"/>
    
    <!-- Processing indicator -->
    <circle cx="18" cy="24" r="2" fill="#FF9900"/>
    <circle cx="32" cy="24" r="2" fill="#FF9900"/>
    <circle cx="46" cy="24" r="2" fill="#FF9900"/>
    
    <!-- Queue arrows -->
    <path d="M18 44 L22 48 L18 52" fill="none" stroke="#fff" stroke-width="2"/>
    <path d="M32 44 L36 48 L32 52" fill="none" stroke="#fff" stroke-width="2"/>
    <path d="M46 44 L50 48 L46 52" fill="none" stroke="#fff" stroke-width="2"/>
  </g>
  
  <!-- Service label -->
  <text x="32" y="58" font-family="Arial, sans-serif" font-size="8" fill="#333" text-anchor="middle">Batch</text>
</svg>