<svg width="64" height="64" viewBox="0 0 64 64" xmlns="http://www.w3.org/2000/svg">
  <defs>
    <linearGradient id="cfn-gradient" x1="0%" y1="0%" x2="100%" y2="100%">
      <stop offset="0%" style="stop-color:#FF9900;stop-opacity:1" />
      <stop offset="100%" style="stop-color:#E88800;stop-opacity:1" />
    </linearGradient>
  </defs>
  
  <!-- Background circle -->
  <circle cx="32" cy="32" r="30" fill="url(#cfn-gradient)" stroke="#fff" stroke-width="2"/>
  
  <!-- CloudFormation stack representation -->
  <g fill="#fff" stroke="#fff" stroke-width="1.5">
    <!-- Stack layers -->
    <rect x="16" y="34" width="32" height="4" rx="2" fill="#fff"/>
    <rect x="18" y="30" width="28" height="4" rx="2" fill="#fff"/>
    <rect x="20" y="26" width="24" height="4" rx="2" fill="#fff"/>
    <rect x="22" y="22" width="20" height="4" rx="2" fill="#fff"/>
    
    <!-- CloudFormation template -->
    <rect x="24" y="12" width="16" height="8" rx="1" fill="none" stroke="#fff" stroke-width="2"/>
    <line x1="26" y1="15" x2="38" y2="15" stroke="#fff" stroke-width="1"/>
    <line x1="26" y1="17" x2="38" y2="17" stroke="#fff" stroke-width="1"/>
    <line x1="26" y1="19" x2="34" y2="19" stroke="#fff" stroke-width="1"/>
    
    <!-- Deployment arrow -->
    <path d="M32 21 L32 22 M30 21 L32 23 L34 21" fill="none" stroke="#fff" stroke-width="2"/>
    
    <!-- Resource indicators -->
    <circle cx="20" cy="40" r="1.5" fill="#FF9900"/>
    <circle cx="26" cy="40" r="1.5" fill="#FF9900"/>
    <circle cx="32" cy="40" r="1.5" fill="#FF9900"/>
    <circle cx="38" cy="40" r="1.5" fill="#FF9900"/>
    <circle cx="44" cy="40" r="1.5" fill="#FF9900"/>
    
    <!-- Status indicators -->
    <text x="32" y="48" font-family="Arial, sans-serif" font-size="6" fill="#fff" text-anchor="middle">CREATE_COMPLETE</text>
  </g>
  
  <!-- Service label -->
  <text x="32" y="58" font-family="Arial, sans-serif" font-size="8" fill="#333" text-anchor="middle">CloudFormation</text>
</svg>