<svg width="64" height="64" viewBox="0 0 64 64" xmlns="http://www.w3.org/2000/svg">
  <defs>
    <linearGradient id="codebuild-gradient" x1="0%" y1="0%" x2="100%" y2="100%">
      <stop offset="0%" style="stop-color:#FF9900;stop-opacity:1" />
      <stop offset="100%" style="stop-color:#E88800;stop-opacity:1" />
    </linearGradient>
  </defs>
  
  <!-- Background circle -->
  <circle cx="32" cy="32" r="30" fill="url(#codebuild-gradient)" stroke="#fff" stroke-width="2"/>
  
  <!-- CodeBuild representation -->
  <g fill="#fff" stroke="#fff" stroke-width="1.5">
    <!-- Build container -->
    <rect x="16" y="20" width="32" height="24" rx="2" fill="none" stroke="#fff" stroke-width="2"/>
    
    <!-- Build steps -->
    <rect x="20" y="24" width="24" height="4" rx="1" fill="#fff"/>
    <text x="32" y="27" font-family="Arial, sans-serif" font-size="6" fill="#FF9900" text-anchor="middle">BUILD</text>
    
    <!-- Progress bar -->
    <rect x="20" y="32" width="24" height="2" rx="1" fill="none" stroke="#fff" stroke-width="1"/>
    <rect x="20" y="32" width="16" height="2" rx="1" fill="#28a745"/>
    
    <!-- Build artifacts -->
    <rect x="20" y="36" width="8" height="4" rx="1" fill="#fff"/>
    <rect x="30" y="36" width="8" height="4" rx="1" fill="#fff"/>
    <rect x="40" y="36" width="6" height="4" rx="1" fill="#fff"/>
    
    <!-- Source code input -->
    <rect x="24" y="12" width="16" height="6" rx="1" fill="none" stroke="#fff" stroke-width="1.5"/>
    <text x="32" y="16" font-family="Arial, sans-serif" font-size="6" fill="#fff" text-anchor="middle">SOURCE</text>
    
    <!-- Output arrow -->
    <path d="M32 46 L32 50 M30 48 L32 50 L34 48" fill="none" stroke="#fff" stroke-width="2"/>
    
    <!-- Build status -->
    <circle cx="44" cy="26" r="2" fill="#28a745"/>
    <text x="44" y="28" font-family="Arial, sans-serif" font-size="4" fill="#fff" text-anchor="middle">✓</text>
  </g>
  
  <!-- Service label -->
  <text x="32" y="58" font-family="Arial, sans-serif" font-size="8" fill="#333" text-anchor="middle">CodeBuild</text>
</svg>