<svg width="64" height="64" viewBox="0 0 64 64" xmlns="http://www.w3.org/2000/svg">
  <defs>
    <linearGradient id="efs-gradient" x1="0%" y1="0%" x2="100%" y2="100%">
      <stop offset="0%" style="stop-color:#FF9900;stop-opacity:1" />
      <stop offset="100%" style="stop-color:#E88800;stop-opacity:1" />
    </linearGradient>
  </defs>
  
  <!-- Background circle -->
  <circle cx="32" cy="32" r="30" fill="url(#efs-gradient)" stroke="#fff" stroke-width="2"/>
  
  <!-- EFS file system representation -->
  <g fill="#fff" stroke="#fff" stroke-width="1.5">
    <!-- Central file system -->
    <circle cx="32" cy="32" r="8" fill="none" stroke="#fff" stroke-width="2"/>
    <text x="32" y="36" font-family="Arial, sans-serif" font-size="10" fill="#fff" text-anchor="middle">EFS</text>
    
    <!-- Connected instances -->
    <rect x="12" y="12" width="8" height="6" rx="1" fill="#fff"/>
    <rect x="44" y="12" width="8" height="6" rx="1" fill="#fff"/>
    <rect x="12" y="46" width="8" height="6" rx="1" fill="#fff"/>
    <rect x="44" y="46" width="8" height="6" rx="1" fill="#fff"/>
    
    <!-- Connection lines -->
    <line x1="20" y1="15" x2="26" y2="26" stroke="#fff" stroke-width="2"/>
    <line x1="44" y1="15" x2="38" y2="26" stroke="#fff" stroke-width="2"/>
    <line x1="20" y1="49" x2="26" y2="38" stroke="#fff" stroke-width="2"/>
    <line x1="44" y1="49" x2="38" y2="38" stroke="#fff" stroke-width="2"/>
    
    <!-- Mount targets -->
    <circle cx="26" cy="26" r="2" fill="#fff"/>
    <circle cx="38" cy="26" r="2" fill="#fff"/>
    <circle cx="26" cy="38" r="2" fill="#fff"/>
    <circle cx="38" cy="38" r="2" fill="#fff"/>
  </g>
  
  <!-- Service label -->
  <text x="32" y="58" font-family="Arial, sans-serif" font-size="8" fill="#333" text-anchor="middle">EFS</text>
</svg>