<svg width="64" height="64" viewBox="0 0 64 64" xmlns="http://www.w3.org/2000/svg">
  <defs>
    <linearGradient id="fsx-gradient" x1="0%" y1="0%" x2="100%" y2="100%">
      <stop offset="0%" style="stop-color:#FF9900;stop-opacity:1" />
      <stop offset="100%" style="stop-color:#E88800;stop-opacity:1" />
    </linearGradient>
  </defs>
  
  <!-- Background circle -->
  <circle cx="32" cy="32" r="30" fill="url(#fsx-gradient)" stroke="#fff" stroke-width="2"/>
  
  <!-- FSx file system representation -->
  <g fill="#fff" stroke="#fff" stroke-width="1.5">
    <!-- High-performance file system -->
    <rect x="16" y="20" width="32" height="20" rx="2" fill="none" stroke="#fff" stroke-width="2"/>
    
    <!-- File system type indicators -->
    <rect x="20" y="24" width="6" height="4" rx="1" fill="#fff"/>
    <rect x="29" y="24" width="6" height="4" rx="1" fill="#fff"/>
    <rect x="38" y="24" width="6" height="4" rx="1" fill="#fff"/>
    
    <!-- Performance bars -->
    <rect x="20" y="32" width="24" height="2" rx="1" fill="#fff"/>
    <rect x="20" y="32" width="20" height="2" rx="1" fill="#28a745"/>
    
    <!-- Throughput indicator -->
    <text x="32" y="37" font-family="Arial, sans-serif" font-size="6" fill="#fff" text-anchor="middle">HIGH PERF</text>
    
    <!-- Network connections -->
    <rect x="12" y="12" width="6" height="4" rx="1" fill="#fff"/>
    <rect x="46" y="12" width="6" height="4" rx="1" fill="#fff"/>
    <rect x="12" y="48" width="6" height="4" rx="1" fill="#fff"/>
    <rect x="46" y="48" width="6" height="4" rx="1" fill="#fff"/>
    
    <!-- Connection lines -->
    <line x1="16" y1="14" x2="20" y2="24" stroke="#fff" stroke-width="1.5"/>
    <line x1="48" y1="14" x2="44" y2="24" stroke="#fff" stroke-width="1.5"/>
    <line x1="16" y1="50" x2="20" y2="36" stroke="#fff" stroke-width="1.5"/>
    <line x1="48" y1="50" x2="44" y2="36" stroke="#fff" stroke-width="1.5"/>
    
    <!-- FSx logo -->
    <text x="32" y="50" font-family="Arial, sans-serif" font-size="8" fill="#fff" text-anchor="middle">FSx</text>
  </g>
  
  <!-- Service label -->
  <text x="32" y="58" font-family="Arial, sans-serif" font-size="8" fill="#333" text-anchor="middle">FSx</text>
</svg>