<svg width="64" height="64" viewBox="0 0 64 64" xmlns="http://www.w3.org/2000/svg">
  <defs>
    <linearGradient id="glue-gradient" x1="0%" y1="0%" x2="100%" y2="100%">
      <stop offset="0%" style="stop-color:#FF9900;stop-opacity:1" />
      <stop offset="100%" style="stop-color:#E88800;stop-opacity:1" />
    </linearGradient>
  </defs>
  
  <!-- Background circle -->
  <circle cx="32" cy="32" r="30" fill="url(#glue-gradient)" stroke="#fff" stroke-width="2"/>
  
  <!-- AWS Glue ETL representation -->
  <g fill="#fff" stroke="#fff" stroke-width="1.5">
    <!-- Data sources -->
    <rect x="8" y="20" width="8" height="6" rx="1" fill="#fff"/>
    <rect x="8" y="30" width="8" height="6" rx="1" fill="#fff"/>
    <rect x="8" y="40" width="8" height="6" rx="1" fill="#fff"/>
    
    <!-- ETL process -->
    <rect x="24" y="26" width="16" height="12" rx="2" fill="none" stroke="#fff" stroke-width="2"/>
    <text x="32" y="34" font-family="Arial, sans-serif" font-size="8" fill="#fff" text-anchor="middle">ETL</text>
    
    <!-- Data targets -->
    <rect x="48" y="26" width="8" height="6" rx="1" fill="#fff"/>
    <rect x="48" y="36" width="8" height="6" rx="1" fill="#fff"/>
    
    <!-- Data flow -->
    <path d="M16 23 L20 29" fill="none" stroke="#fff" stroke-width="2"/>
    <path d="M16 33 L24 32" fill="none" stroke="#fff" stroke-width="2"/>
    <path d="M16 43 L20 35" fill="none" stroke="#fff" stroke-width="2"/>
    
    <path d="M40 29 L44 29" fill="none" stroke="#fff" stroke-width="2"/>
    <path d="M40 35 L44 39" fill="none" stroke="#fff" stroke-width="2"/>
    
    <!-- Transform indicators -->
    <circle cx="26" cy="32" r="1.5" fill="#fff"/>
    <circle cx="32" cy="30" r="1.5" fill="#fff"/>
    <circle cx="38" cy="32" r="1.5" fill="#fff"/>
    <circle cx="32" cy="36" r="1.5" fill="#fff"/>
    
    <!-- Crawler -->
    <path d="M32 14 L36 18 L32 22 L28 18 Z" fill="none" stroke="#fff" stroke-width="1.5"/>
    <text x="32" y="19" font-family="Arial, sans-serif" font-size="4" fill="#fff" text-anchor="middle">C</text>
  </g>
  
  <!-- Service label -->
  <text x="32" y="58" font-family="Arial, sans-serif" font-size="8" fill="#333" text-anchor="middle">Glue</text>
</svg>