<svg width="64" height="64" viewBox="0 0 64 64" xmlns="http://www.w3.org/2000/svg">
  <defs>
    <linearGradient id="kms-gradient" x1="0%" y1="0%" x2="100%" y2="100%">
      <stop offset="0%" style="stop-color:#FF9900;stop-opacity:1" />
      <stop offset="100%" style="stop-color:#E88800;stop-opacity:1" />
    </linearGradient>
  </defs>
  
  <!-- Background circle -->
  <circle cx="32" cy="32" r="30" fill="url(#kms-gradient)" stroke="#fff" stroke-width="2"/>
  
  <!-- KMS key management representation -->
  <g fill="#fff" stroke="#fff" stroke-width="1.5">
    <!-- Key icon -->
    <circle cx="26" cy="28" r="6" fill="none" stroke="#fff" stroke-width="2"/>
    <rect x="32" y="26" width="12" height="4" rx="2" fill="#fff"/>
    
    <!-- Key teeth -->
    <rect x="42" y="24" width="2" height="2" fill="#fff"/>
    <rect x="42" y="30" width="2" height="2" fill="#fff"/>
    <rect x="40" y="27" width="2" height="2" fill="#fff"/>
    
    <!-- Encryption shield -->
    <path d="M20 38 L20 48 L28 52 L36 48 L36 38 L28 34 Z" fill="none" stroke="#fff" stroke-width="2"/>
    
    <!-- Lock in shield -->
    <rect x="26" y="42" width="4" height="4" rx="0.5" fill="#fff"/>
    <path d="M24 42 L24 40 Q24 38 26 38 Q28 38 28 40 L28 42" fill="none" stroke="#fff" stroke-width="1.5"/>
  </g>
  
  <!-- Service label -->
  <text x="32" y="58" font-family="Arial, sans-serif" font-size="8" fill="#333" text-anchor="middle">KMS</text>
</svg>