<svg width="64" height="64" viewBox="0 0 64 64" xmlns="http://www.w3.org/2000/svg">
  <defs>
    <linearGradient id="secrets-gradient" x1="0%" y1="0%" x2="100%" y2="100%">
      <stop offset="0%" style="stop-color:#FF9900;stop-opacity:1" />
      <stop offset="100%" style="stop-color:#E88800;stop-opacity:1" />
    </linearGradient>
  </defs>
  
  <!-- Background circle -->
  <circle cx="32" cy="32" r="30" fill="url(#secrets-gradient)" stroke="#fff" stroke-width="2"/>
  
  <!-- Secrets Manager representation -->
  <g fill="#fff" stroke="#fff" stroke-width="1.5">
    <!-- Vault/safe -->
    <rect x="18" y="20" width="28" height="24" rx="2" fill="none" stroke="#fff" stroke-width="2"/>
    
    <!-- Safe door -->
    <circle cx="32" cy="32" r="8" fill="none" stroke="#fff" stroke-width="2"/>
    
    <!-- Combination dial -->
    <circle cx="32" cy="32" r="6" fill="none" stroke="#fff" stroke-width="1"/>
    <circle cx="32" cy="32" r="4" fill="none" stroke="#fff" stroke-width="1"/>
    <circle cx="32" cy="32" r="2" fill="#fff"/>
    
    <!-- Dial marks -->
    <line x1="32" y1="26" x2="32" y2="28" stroke="#fff" stroke-width="1"/>
    <line x1="38" y1="32" x2="36" y2="32" stroke="#fff" stroke-width="1"/>
    <line x1="32" y1="38" x2="32" y2="36" stroke="#fff" stroke-width="1"/>
    <line x1="26" y1="32" x2="28" y2="32" stroke="#fff" stroke-width="1"/>
    
    <!-- Handle -->
    <rect x="44" y="30" width="4" height="4" rx="2" fill="#fff"/>
    
    <!-- Secret indicators -->
    <circle cx="22" cy="24" r="1" fill="#fff"/>
    <circle cx="42" cy="24" r="1" fill="#fff"/>
    <circle cx="22" cy="40" r="1" fill="#fff"/>
    <circle cx="42" cy="40" r="1" fill="#fff"/>
  </g>
  
  <!-- Service label -->
  <text x="32" y="58" font-family="Arial, sans-serif" font-size="8" fill="#333" text-anchor="middle">Secrets Mgr</text>
</svg>