<svg width="64" height="64" viewBox="0 0 64 64" xmlns="http://www.w3.org/2000/svg">
  <defs>
    <linearGradient id="stepfunctions-gradient" x1="0%" y1="0%" x2="100%" y2="100%">
      <stop offset="0%" style="stop-color:#FF9900;stop-opacity:1" />
      <stop offset="100%" style="stop-color:#E88800;stop-opacity:1" />
    </linearGradient>
  </defs>
  
  <!-- Background circle -->
  <circle cx="32" cy="32" r="30" fill="url(#stepfunctions-gradient)" stroke="#fff" stroke-width="2"/>
  
  <!-- Step Functions workflow representation -->
  <g fill="#fff" stroke="#fff" stroke-width="1.5">
    <!-- Start -->
    <circle cx="32" cy="14" r="3" fill="#fff"/>
    
    <!-- Step 1 -->
    <rect x="26" y="22" width="12" height="6" rx="1" fill="#fff"/>
    <text x="32" y="26" font-family="Arial, sans-serif" font-size="6" fill="#FF9900" text-anchor="middle">STEP 1</text>
    
    <!-- Decision diamond -->
    <path d="M32 32 L38 38 L32 44 L26 38 Z" fill="none" stroke="#fff" stroke-width="2"/>
    <text x="32" y="40" font-family="Arial, sans-serif" font-size="5" fill="#fff" text-anchor="middle">?</text>
    
    <!-- Step 2A -->
    <rect x="14" y="46" width="10" height="6" rx="1" fill="#fff"/>
    <text x="19" y="50" font-family="Arial, sans-serif" font-size="5" fill="#FF9900" text-anchor="middle">STEP 2A</text>
    
    <!-- Step 2B -->
    <rect x="40" y="46" width="10" height="6" rx="1" fill="#fff"/>
    <text x="45" y="50" font-family="Arial, sans-serif" font-size="5" fill="#FF9900" text-anchor="middle">STEP 2B</text>
    
    <!-- Flow arrows -->
    <line x1="32" y1="17" x2="32" y2="22" stroke="#fff" stroke-width="2"/>
    <line x1="32" y1="28" x2="32" y2="32" stroke="#fff" stroke-width="2"/>
    <line x1="26" y1="38" x2="20" y2="46" stroke="#fff" stroke-width="2"/>
    <line x1="38" y1="38" x2="44" y2="46" stroke="#fff" stroke-width="2"/>
    
    <!-- Arrow heads -->
    <path d="M30 21 L32 19 L34 21" fill="none" stroke="#fff" stroke-width="1"/>
    <path d="M30 31 L32 29 L34 31" fill="none" stroke="#fff" stroke-width="1"/>
  </g>
  
  <!-- Service label -->
  <text x="32" y="58" font-family="Arial, sans-serif" font-size="8" fill="#333" text-anchor="middle">Step Functions</text>
</svg>